<svg viewBox="0 0 1000 850" xmlns="http://www.w3.org/2000/svg" xmlns:svg="http://www.w3.org/2000/svg" xmlns:xlink="http://www.w3.org/1999/xlink">
  <style>
    ellipse {
      fill: none;
      stroke: #000000;
    }
    line {
      stroke: #000000;
      stroke-width: 3;
    }
    .noir line {
      stroke-width: 2;
    }
    rect {
      stroke-width: 3;
      fill: none;
      stroke: #000000;
    }
    path {
      stroke-width: 3;
      fill: none;
      stroke: #000000;
    }
    .jags path {
      stroke-width: 2;
    }
    .arrows path {
      fill: #000000;
    }
    text {
      stroke-width: 0;
      text-anchor: middle;
      font-family: Monospace;
      font-size: 24px;
    }
  </style>
 <g class="gear">
  <ellipse ry="202" rx="217" cy="433" cx="354" stroke-width="5"/>
  <ellipse ry="220.00001" rx="239.5" cy="432.5" cx="352.5" stroke-width="3"/>
  <ellipse ry="98" rx="108.5" cy="433.5" cx="355.50001" stroke-width="3"/>
  <ellipse ry="84.5" rx="93" cy="433" cx="356.50001" stroke-width="3"/>
  <ellipse ry="64" rx="72" cy="434.5" cx="356.50001" stroke-width="3"/>
  <ellipse ry="50.5" rx="54" cy="434" cx="357.50001" stroke-width="2"/>
  <ellipse ry="47" rx="49.5" cy="434" cx="357.50001" stroke-width="2"/>
  <ellipse ry="38.5" rx="41" cy="433" cx="356.50001" stroke-width="2"/>
  <ellipse ry="34.5" rx="37.5" cy="433" cx="357" stroke-width="2"/>
  <ellipse ry="15.5" rx="17.5" cy="507" cx="330.5" stroke-width="3"/>
  <ellipse ry="15.5" rx="17.5" cy="508.5" cx="372" stroke-width="3"/>
  <ellipse ry="15.5" rx="16" cy="491.5" cx="412.5" stroke-width="3"/>
  <ellipse ry="16" rx="16" cy="459" cx="435.5" stroke-width="3"/>
  <ellipse ry="15.5" rx="15.5" cy="419.5" cx="438" stroke-width="3"/>
  <ellipse ry="15.5" rx="16.5" cy="484.5" cx="293" stroke-width="3"/>
  <ellipse ry="15" rx="17" cy="449" cx="274.5" stroke-width="3"/>
  <ellipse ry="14.5" rx="16.5" cy="409.5" cx="279" stroke-width="3"/>
  <ellipse ry="14" rx="16.5" cy="377" cx="300" stroke-width="3"/>
  <ellipse ry="15.5" rx="15.5" cy="359.5" cx="339" stroke-width="3"/>
  <ellipse ry="15.5" rx="17" cy="362.5" cx="382.5" stroke-width="3"/>
  <ellipse ry="15.5" rx="17" cy="384.5" cx="419.5" stroke-width="3"/>
  <ellipse ry="15" rx="15.5" cy="508" cx="705" stroke-width="3"/>
  <ellipse ry="15" rx="15.5" cy="491.5" cx="704" stroke-width="3"/>
  <ellipse ry="15" rx="15.5" cy="458.5" cx="704" stroke-width="3"/>
  <ellipse ry="15" rx="15.5" cy="420.5" cx="704" stroke-width="3"/>
  <ellipse ry="15" rx="15.5" cy="385.5" cx="704" stroke-width="3"/>
  <ellipse ry="15" rx="15.5" cy="363.5" cx="704" stroke-width="3"/>
  <ellipse ry="15" rx="15.5" cy="359.5" cx="704" stroke-width="3"/>
  <line y2="433.68359" x2="150.72471" y1="433.68359" x1="123.35938"/>
  <line y2="434" x2="117.18565" y1="434" x1="74"/>
  <line y2="433.61133" x2="198.01079" y1="433.61133" x1="157.3564"/>
  <line y2="433.61133" x2="215.41313" y1="433.61133" x1="204.50093"/>
  <line y2="433.61133" x2="232.81548" y1="433.61133" x1="220.63765"/>
  <line y2="433.61133" x2="295.4639" y1="433.61133" x1="237.40718"/>
  <line y2="433.61133" x2="375.83113" y1="433.61133" x1="306.70016"/>
  <line y2="433.61133" x2="452.71785" y1="433.61133" x1="381.05563"/>
  <line y2="433.61133" x2="468.85456" y1="433.61133" x1="459.20798"/>
  <line y2="433.61133" x2="513.46784" y1="433.61133" x1="475.02829"/>
  <line y2="433.61133" x2="529.60456" y1="433.61133" x1="518.69237"/>
  <line y2="433.61133" x2="544.79205" y1="433.61133" x1="535.1455"/>
  <line y2="433.61133" x2="602.69441" y1="433.61133" x1="550.33295"/>
  <line y2="433.61133" x2="619.78032" y1="433.61133" x1="609.50092"/>
  <line y2="433.61133" x2="663.44436" y1="433.61133" x1="624.68842"/>
  <line y2="433.61133" x2="676.41704" y1="433.61133" x1="667.08685"/>
  <line y2="433.29492" x2="737.167" y1="433.29492" x1="681.32513"/>
  <line y2="433.61133" x2="749.82329" y1="433.61133" x1="741.44232"/>
  <line y2="433.92773" x2="767.54204" y1="433.92773" x1="755.04779"/>
  <line y2="433.92773" x2="809.62405" y1="433.92773" x1="771.18451"/>
  <line y2="433.92773" x2="837.78422" y1="433.92773" x1="815.16498"/>
  <line y2="434.24414" x2="874.80373" y1="434.24414" x1="845.53998"/>
  <line y2="383.46098" x2="435.23826" y1="150.26957" x1="433.02342"/>
  <line y2="384.09379" x2="402.96482" y1="150.90238" x1="400.11717"/>
  <line y2="382.82817" x2="449.00093" y1="382.82817" x1="386.5117"/>
  <line y2="412.34226" x2="418.78513" y1="355.61723" x1="418.78513"/>
  <line y2="480.91411" x2="357.71873" y1="150.26957" x1="354.55466"/>
  <line y2="433.45317" x2="357.40232" y1="161.66019" x1="258.68357"/>
  <line y2="432.82036" x2="357.71873" y1="187.92191" x1="177.99997"/>
  <line y2="432.82036" x2="356.76951" y1="275.88285" x1="129.90622"/>
  <line y2="433.76958" x2="357.40232" y1="366.37504" x1="103.32809"/>
  <line y2="377.76567" x2="634.2578" y1="128.43754" x1="626.66405"/>
  <line y2="377.13286" x2="874.09374" y1="123.69144" x1="869.66406"/>
  <line y2="789.41021" x2="86.24216" y1="432.50395" x1="86.55856"/>
  <line y2="797.013" x2="134.96872" y1="434.7188" x1="134.96872"/>
  <line y2="431.19513" x2="572.24217" y1="789.72662" x1="572.24217"/>
  <line y2="803.96651" x2="609.2617" y1="435.35161" x1="609.2617"/>
  <line y2="237.5977" x2="465.92967" y1="166.72269" x1="505.16404"/>
  <line y2="191.40238" x2="513.70701" y1="175.58207" x1="522.24998"/>
  <line y2="192.03519" x2="519.08592" y1="179.37894" x1="497.8867"/>
  <line y2="311.63676" x2="552.30858" y1="271.45317" x1="612.74217"/>
  <line y2="315.43364" x2="556.10545" y1="275.56645" x1="615.90623"/>
  <line y2="283.4766" x2="604.1992" y1="250.57035" x1="580.15233"/>
  <line y2="755.57349" x2="246.66013" y1="432.50395" x1="246.66013"/>
  <line y2="750.9235" x2="463.71482" y1="433.13676" x1="463.71482"/>
  <line y2="715.29799" x2="411.50779" y1="433.45317" x1="411.50779"/>
  <line y2="717.62453" x2="302.66404" y1="431.87114" x1="302.66404"/>
  <line y2="700.50005" x2="411.10643" y1="700.50005" x1="393.47263"/>
  <line y2="702.39849" x2="302.34453" y1="702.39849" x1="318.48435"/>
  <line y2="780.23443" x2="571.61189" y1="780.23443" x1="393.47263"/>
  <line y2="783.7149" x2="319.4379" y1="783.7149" x1="134.33591"/>
  <line y2="739.73443" x2="319.1199" y1="739.73443" x1="246.02732"/>
  <line y2="738.46881" x2="462.45209" y1="738.46881" x1="393.15623"/>
  <g class="arrows">
    <path d="m247.92575,739.41802c0,0 24.36328,-6.64453 24.36328,-6.64453c0,0 0,7.27734 -0.17966,6.98432c-0.17966,-0.29302 -24.18362,-0.33979 -24.18362,-0.33979z"/>
    <path d="m136.07617,783.54064c0,0 24.36329,-6.64453 24.36329,-6.64453c0,0 0,7.27735 -0.17966,6.98432c-0.17967,-0.29302 -24.18363,-0.33979 -24.18363,-0.33979z"/>
    <path d="m462.29102,737.97814c0,0 -23.73048,-6.64453 -23.73048,-6.64453c0,0 0,7.27735 0.17499,6.98432c0.175,-0.29302 23.55548,-0.33979 23.55548,-0.33979z"/>
    <path d="m573.03321,780.37658c0,0 -23.73048,-6.64453 -23.73048,-6.64453c0,0 0,7.27735 0.17499,6.98432c0.175,-0.29302 23.55549,-0.33979 23.55549,-0.33979z"/>
    <path d="m870.77149,138.3883c0,0 -23.73048,-6.64453 -23.73048,-6.64453c0,0 0,7.27735 0.17499,6.98432c0.175,-0.29302 23.55549,-0.33979 23.55549,-0.33979z"/>
    <path d="m628.08788,142.18517c0,0 21.83204,-6.64453 21.83204,-6.64453c0,0 0,7.27735 -0.16099,6.98432c-0.161,-0.29302 -21.67105,-0.33979 -21.67105,-0.33979z"/>
    <path transform="rotate(90 900.5927734375,385.992156982422) " d="m889.91405,388.07945c0,0 21.35744,-4.40561 21.35744,-4.40561c0,0 0,4.8252 -0.1575,4.63091c-0.1575,-0.19429 -21.19994,-0.2253 -21.19994,-0.2253z"/>
    <path transform="rotate(90 930.4931640625,363.56692504882824) " d="m919.81444,365.6542c0,0 21.35745,-4.40561 21.35745,-4.40561c0,0 0,4.8252 -0.1575,4.63091c-0.1575,-0.19429 -21.19995,-0.2253 -21.19995,-0.2253z"/>
    <path transform="rotate(90 967.0380859375,354.78665161132824) " d="m956.35936,356.87393c0,0 21.35745,-4.40561 21.35745,-4.40561c0,0 0,4.8252 -0.1575,4.63091c-0.1575,-0.19429 -21.19995,-0.2253 -21.19995,-0.2253z"/>
    <path transform="rotate(-90 896.7958984375,482.4565124511718) " d="m888.13427,484.5438c0,0 17.32326,-4.40561 17.32326,-4.40561c0,0 0,4.8252 -0.12775,4.63091c-0.12775,-0.19429 -17.19551,-0.2253 -17.19551,-0.2253z"/>
    <path transform="rotate(-90 925.2724609375,504.2885437011718) " d="m914.9497,506.37584c0,0 20.64553,-4.40561 20.64553,-4.40561c0,0 0,4.8252 -0.15225,4.63091c-0.15225,-0.19429 -20.49328,-0.2253 -20.49328,-0.2253z"/>
    <path transform="rotate(-90 961.3427124023439,514.3740234375001) " d="m950.42669,516.46135c0,0 21.83205,-4.40561 21.83205,-4.40561c0,0 0,4.8252 -0.161,4.63091c-0.161,-0.19429 -21.67105,-0.2253 -21.67105,-0.2253z"/>
    <path transform="rotate(-75.21731567382812 871.2271118164062,661.0689086914062) " d="m860.96344,663.1562c0,0 20.52735,-4.40561 20.52735,-4.40561c0,0 0,4.8252 -0.15138,4.63091c-0.15138,-0.19429 -20.37597,-0.2253 -20.37597,-0.2253z"/>
    <path transform="rotate(-77.39134216308594 903.6776733398436,504.5258789062499) " d="m912.81391,506.6132c0,0 -18.27248,-4.40561 -18.27248,-4.40561c0,0 0,4.8252 0.13475,4.63091c0.13475,-0.19429 18.13773,-0.2253 18.13773,-0.2253z"/>
  </g>
  <path d="m837.46965,522.20507c0,0.2373 9.49219,-7.35645 9.47078,-7.4912c-0.02141,-0.13475 3.10637,-18.84962 3.08496,-18.98438c-0.02141,-0.13475 5.47942,-8.17091 5.45801,-8.30566c-0.02141,-0.13475 20.68873,0.13475 20.64551,0c-0.04322,-0.13475 0.02141,-106.65262 0,-106.78711c-0.02141,-0.13449 -20.43698,0.13476 -20.64551,0c-0.20852,-0.13476 -8.75886,-16.95118 -8.78027,-17.08594c-0.02141,-0.13476 -0.4532,-10.78126 -0.47461,-10.91602c-0.02141,-0.13476 -9.70808,-7.6963 -9.72949,-7.83105c-0.02141,-0.13476 0.97063,177.40136 0.97063,177.40136z"/>
  <line y2="665.69537" x2="497.25389" y1="672.97271" x1="364.67966"/>
  <line y2="642.91412" x2="545.03123" y1="651.45708" x1="378.28513"/>
  <line y2="643.54693" x2="529.52733" y1="650.50787" x1="530.16014"/>
  <line y2="532.48833" x2="679.18749" y1="660.63287" x1="547.56248"/>
  <line y2="649.87505" x2="558.00389" y1="640.38286" x1="548.5117"/>
  <line y2="534.38677" x2="682.98436" y1="733.0899" x1="682.98436"/>
  <line y2="137.92972" x2="869.98046" y1="139.51175" x1="784.55077"/>
  <line y2="142.99222" x2="626.98045" y1="141.09379" x1="713.99218"/>
  <line y2="578.68364" x2="532.05858" y1="485.97661" x1="629.82811"/>
  <line y2="735.48517" x2="837.07421" y1="672.97271" x1="837.07421"/>
  <line y2="734.93028" x2="778.22265" y1="672.02349" x1="778.22265"/>
  <rect height="99.03516" width="143.96485" y="383.77739" x="632.67577"/>
  <rect height="192.0586" width="43.34766" y="337.58207" x="682.03514"/>
  <rect height="162.63282" width="18.03516" y="352.45317" x="731.71093"/>
  <rect height="121.5" width="18.98438" y="373.96879" x="717.15624"/>
  <line y2="400.23051" x2="638.20156" y1="400.23051" x1="632.67577"/>
  <line y2="400.23051" x2="642.55143" y1="400.23051" x1="658.93749"/>
  <line y2="400.38869" x2="663.4007" y1="400.38869" x1="679.78676"/>
  <line y2="400.52093" x2="684.98062" y1="400.52093" x1="743.91469"/>
  <line y2="400.58459" x2="750.80669" y1="400.58459" x1="767.19275"/>
  <line y2="400.6847" x2="770.92939" y1="400.6847" x1="787.31545"/>
  <line y2="400.38436" x2="796.85864" y1="400.38436" x1="804.53487"/>
  <line y2="400.18413" x2="813.87783" y1="400.18413" x1="830.26389"/>
  <line y2="400.18413" x2="839.00617" y1="400.18413" x1="852.38884"/>
  <line y2="400.18413" x2="857.42695" y1="400.18413" x1="875.61504"/>
  <line y2="468.76148" x2="856.82627" y1="468.76148" x1="875.21458"/>
  <line y2="468.76148" x2="837.30425" y1="468.76148" x1="853.69031"/>
  <line y2="468.56126" x2="814.47851" y1="468.56126" x1="830.86456"/>
  <line y2="468.46114" x2="792.75401" y1="468.46114" x1="809.14006"/>
  <line y2="468.46114" x2="771.22973" y1="468.46114" x1="789.91838"/>
  <line y2="468.1608" x2="750.50636" y1="468.1608" x1="766.89241"/>
  <line y2="468.06069" x2="728.68174" y1="468.06069" x1="745.0678"/>
  <line y2="468.06069" x2="706.45667" y1="468.06069" x1="722.84273"/>
  <line y2="467.96058" x2="686.03364" y1="467.96058" x1="702.41969"/>
  <line y2="467.96058" x2="663.20789" y1="467.96058" x1="681.59621"/>
  <line y2="467.96058" x2="643.0852" y1="467.96058" x1="659.47125"/>
  <line y2="467.86046" x2="633.57447" y1="467.86046" x1="639.34855"/>
  <line y2="375.55073" x2="915.19263" y1="375.55073" x1="735.96262"/>
  <line y2="495.68622" x2="911.28048" y1="495.68622" x1="735.78464"/>
  <line y2="352.5915" x2="942.42462" y1="352.5915" x1="757.14206"/>
  <line y2="343.87055" x2="979.61532" y1="343.87055" x1="842.39377"/>
  <line y2="515.08588" x2="944.40105" y1="515.08588" x1="757.49802"/>
  <line y2="526.29853" x2="979.1991" y1="526.29853" x1="841.50387"/>
  <line y2="798.46209" x2="750.02292" y1="520.7812" x1="750.02292"/>
  <line y2="515.08512" x2="732.58102" y1="799.49555" x1="732.58102"/>
  <line y2="523.98069" x2="726.35178" y1="733.10956" x1="726.35178"/>
  <line y2="528.25629" x2="724.03806" y1="563.67402" x1="820.68039"/>
  <line y2="516.50971" x2="732.04709" y1="550.14765" x1="826.3757"/>
  <line y2="515.44184" x2="745.2175" y1="519.35737" x1="715.31711"/>
  <line y2="609.23652" x2="740.05612" y1="666.90155" x1="751.09079"/>
  <line y2="525.23066" x2="725.99582" y1="578.09028" x1="736.14059"/>
  <line y2="667.79145" x2="772.09225" y1="672.95282" x1="736.67453"/>
  <line y2="675.6225" x2="886.8884" y1="666.5456" x1="845.24142"/>
  <line y2="598.20185" x2="888.84616" y1="670.10517" x1="871.22629"/>
  <line y2="494.08442" x2="909.49167" y1="568.30146" x1="893.4736"/>
  <line y2="803.05512" x2="710.39305" y1="545.87617" x1="812.67137"/>
  <line y2="421.62804" x2="898.21965" y1="376.73729" x1="898.21965"/>
  <line y2="493.4912" x2="899.88079" y1="451.25097" x1="899.88079"/>
  <line y2="498.4746" x2="922.42473" y1="489.45702" x1="883.03215"/>
  <line y2="352.99733" x2="927.88274" y1="400.46776" x1="927.88274"/>
  <line y2="467.8018" x2="927.40813" y1="514.37401" x1="927.40813"/>
  <line y2="448.63146" x2="963.71575" y1="525.52733" x1="963.71575"/>
  <line y2="343.75047" x2="963.95305" y1="420.16405" x1="963.95305"/>
  <line y2="247.22822" x2="483.05515" y1="220.70942" x1="496.75949"/>
  <rect height="471.75001" width="61.5" y="193.49999" x="777.25005"/>
  <g class="noir">
    <line y2="198.81807" x2="776.8977" y1="193.65669" x1="797.72118"/>
    <line y2="504.58515" x2="776.54172" y1="486.07539" x1="838.65622"/>
    <line y2="206.8271" x2="777.07566" y1="194.3686" x1="819.25657"/>
    <line y2="214.65815" x2="777.60959" y1="196.14839" x1="839.72409"/>
    <line y2="224.44697" x2="777.25363" y1="205.9372" x1="839.36814"/>
    <line y2="228.89643" x2="777.43161" y1="210.38667" x1="839.54611"/>
    <line y2="237.4394" x2="777.07565" y1="218.92964" x1="839.19016"/>
    <line y2="241.53291" x2="776.7197" y1="223.02314" x1="838.8342"/>
    <line y2="254.70332" x2="775.65183" y1="236.19355" x1="837.76633"/>
    <line y2="260.22065" x2="775.65183" y1="241.71089" x1="837.76633"/>
    <line y2="271.61128" x2="776.89768" y1="253.10151" x1="839.01218"/>
    <line y2="276.06074" x2="776.89768" y1="257.55097" x1="839.01218"/>
    <line y2="289.58711" x2="777.96555" y1="271.07734" x1="840.08005"/>
    <line y2="295.99433" x2="777.43161" y1="277.48457" x1="839.54611"/>
    <line y2="310.94453" x2="777.43161" y1="292.43476" x1="839.54611"/>
    <line y2="316.81782" x2="776.89768" y1="298.30805" x1="839.01218"/>
    <line y2="330.16621" x2="776.00778" y1="311.65644" x1="838.12229"/>
    <line y2="334.79365" x2="776.00778" y1="316.28388" x1="838.12229"/>
    <line y2="337.81929" x2="775.8298" y1="319.30952" x1="837.94431"/>
    <line y2="350.81172" x2="776.00778" y1="332.30195" x1="838.12229"/>
    <line y2="357.04097" x2="775.65183" y1="338.5312" x1="837.76633"/>
    <line y2="362.91426" x2="776.18576" y1="344.40449" x1="838.30026"/>
    <line y2="373.94892" x2="776.7197" y1="355.43916" x1="838.8342"/>
    <line y2="381.95796" x2="776.7197" y1="363.44819" x1="838.8342"/>
    <line y2="388.36518" x2="776.7197" y1="369.85542" x1="838.8342"/>
    <line y2="395.12837" x2="776.7197" y1="376.6186" x1="838.8342"/>
    <line y2="401.35762" x2="777.07565" y1="382.84785" x1="839.19016"/>
    <line y2="405.45112" x2="777.07565" y1="386.94136" x1="839.19016"/>
    <line y2="411.14643" x2="776.7197" y1="392.63667" x1="838.8342"/>
    <line y2="418.79951" x2="776.54172" y1="400.28974" x1="838.65622"/>
    <line y2="422.35908" x2="777.25363" y1="403.84931" x1="839.36814"/>
    <line y2="426.80854" x2="776.36374" y1="408.29878" x1="838.47824"/>
    <line y2="431.08003" x2="776.36374" y1="412.57026" x1="838.47824"/>
    <line y2="436.41938" x2="776.36374" y1="417.90962" x1="838.47824"/>
    <line y2="441.75874" x2="776.54172" y1="423.24897" x1="838.65622"/>
    <line y2="447.81001" x2="776.89768" y1="429.30024" x1="839.01218"/>
    <line y2="455.99702" x2="777.96555" y1="437.48725" x1="840.08005"/>
    <line y2="462.22627" x2="777.25363" y1="443.7165" x1="839.36814"/>
    <line y2="465.2519" x2="777.43161" y1="446.74214" x1="839.54611"/>
    <line y2="471.12519" x2="777.25363" y1="452.61543" x1="839.36814"/>
    <line y2="462.22627" x2="777.25363" y1="443.7165" x1="839.36814"/>
    <line y2="480.2021" x2="777.07565" y1="461.69233" x1="839.19016"/>
    <line y2="485.71943" x2="777.25363" y1="467.20967" x1="839.36814"/>
    <line y2="526.65449" x2="775.8298" y1="508.14472" x1="837.94431"/>
    <line y2="493.19453" x2="777.78757" y1="474.68476" x1="839.90207"/>
    <line y2="509.2126" x2="775.65183" y1="490.70283" x1="837.76633"/>
    <line y2="514.72993" x2="775.65183" y1="496.22016" x1="837.76633"/>
    <line y2="526.65449" x2="775.8298" y1="508.14472" x1="837.94431"/>
    <line y2="530.92598" x2="776.00778" y1="512.41621" x1="838.12229"/>
    <line y2="533.59565" x2="777.07565" y1="515.08589" x1="839.19016"/>
    <line y2="548.01191" x2="777.96555" y1="529.50215" x1="840.08005"/>
    <line y2="554.7751" x2="777.25363" y1="536.26533" x1="839.36814"/>
    <line y2="568.47944" x2="776.89768" y1="549.96968" x1="839.01218"/>
    <line y2="572.75093" x2="776.89768" y1="554.24116" x1="839.01218"/>
    <line y2="586.45527" x2="776.89768" y1="567.94551" x1="839.01218"/>
    <line y2="592.15058" x2="777.25363" y1="573.64082" x1="839.36814"/>
    <line y2="604.07514" x2="776.18576" y1="585.56538" x1="838.30026"/>
    <line y2="609.4145" x2="777.25363" y1="590.90473" x1="839.36814"/>
    <line y2="620.09321" x2="778.14353" y1="601.58345" x1="840.25803"/>
    <line y2="623.4748" x2="777.96555" y1="604.96504" x1="840.08005"/>
    <line y2="637.17915" x2="777.78757" y1="618.66938" x1="839.90207"/>
    <line y2="639.49287" x2="778.14353" y1="620.9831" x1="840.25803"/>
    <line y2="661.91815" x2="778.32151" y1="658.00263" x1="837.94431"/>
    <line y2="646.61201" x2="777.96555" y1="635.93329" x1="839.19015"/>
    <line y2="656.04486" x2="777.60959" y1="648.92572" x1="837.9443"/>
  </g>
  <g class="jags">
    <path d="m151.3032,311.12251c-1.77978,-0.8899 -14.41626,-17.79785 -14.43772,-17.81392c-0.02146,-0.01606 5.00486,-6.74712 4.9834,-6.76318c-0.02147,-0.01606 20.489,9.09298 21.71338,10.14478c-8.74242,6.56914 -8.34353,9.27094 -12.25906,14.43232z"/>
    <path transform="rotate(8.572905540466309 166.7873535156242,279.70935058593767) " d="m167.87672,291.99792c-1.77978,-0.8899 -14.41626,-17.79785 -14.43772,-17.81392c-0.02146,-0.01606 5.00486,-6.74712 4.9834,-6.76318c-0.02147,-0.01606 20.489,9.09298 21.71338,10.14478c-8.74242,6.56914 -8.34353,9.27094 -12.25906,14.43232z"/>
    <path transform="rotate(12.073722839355469 185.65307617187457,262.62341308593756) " d="m186.74244,274.91198c-1.77978,-0.8899 -14.41626,-17.79785 -14.43772,-17.81392c-0.02146,-0.01606 5.00486,-6.74712 4.9834,-6.76318c-0.02147,-0.01606 20.489,9.09298 21.71338,10.14478c-8.74242,6.56914 -8.34353,9.27094 -12.25906,14.43232z"/>
    <path transform="rotate(19.304317474365234 206.1206054687501,246.60536193847653) " d="m207.20997,258.89392c-1.77978,-0.8899 -14.41626,-17.79785 -14.43772,-17.81392c-0.02146,-0.01606 5.00486,-6.74712 4.9834,-6.76318c-0.02147,-0.01606 20.489,9.09298 21.71338,10.14478c-8.74242,6.56914 -8.34353,9.27094 -12.25906,14.43232z"/>
    <path transform="rotate(23.06443977355957 228.72387695312503,234.14686584472656) " d="m229.81324,246.43542c-1.77978,-0.8899 -14.41626,-17.79785 -14.43772,-17.81392c-0.02146,-0.01606 5.00486,-6.74712 4.9834,-6.76318c-0.02147,-0.01606 20.489,9.09298 21.71338,10.14478c-8.74242,6.56914 -8.34353,9.27094 -12.25906,14.43232z"/>
    <path transform="rotate(-6.809085369110107 136.17504882812418,318.6866455078126) " d="m137.26441,330.97522c-1.77978,-0.8899 -14.41626,-17.79785 -14.43772,-17.81392c-0.02146,-0.01606 5.00486,-6.74712 4.9834,-6.76318c-0.02147,-0.01606 20.489,9.09298 21.71338,10.14478c-8.74242,6.56914 -8.34353,9.27094 -12.25906,14.43232z"/>
    <path transform="rotate(-16.481277465820312 124.78442382812526,342.0018310546875) " d="m125.87379,354.2904c-1.77978,-0.8899 -14.41626,-17.79785 -14.43772,-17.81392c-0.02146,-0.01606 5.00486,-6.74712 4.9834,-6.76318c-0.02147,-0.01606 20.489,9.09298 21.71338,10.14478c-8.74242,6.56914 -8.34353,9.27094 -12.25906,14.43232z"/>
    <path transform="rotate(-21.8013973236084 114.99560546874989,364.07116699218744) " d="m116.08497,376.35974c-1.77978,-0.8899 -14.41626,-17.79785 -14.43772,-17.81392c-0.02146,-0.01606 5.00486,-6.74712 4.9834,-6.76318c-0.02147,-0.01606 20.489,9.09298 21.71338,10.14478c-8.74242,6.56914 -8.34353,9.27094 -12.25906,14.43232z"/>
    <path transform="rotate(-29.971466064453125 108.41040039062513,387.3863525390625) " d="m109.49976,399.67492c-1.77978,-0.8899 -14.41626,-17.79785 -14.43772,-17.81392c-0.02146,-0.01606 5.00486,-6.74712 4.9834,-6.76318c-0.02147,-0.01606 20.489,9.09298 21.71338,10.14478c-8.74242,6.56914 -8.34353,9.27094 -12.25906,14.43232z"/>
    <path transform="rotate(-32.8285026550293 105.02880859374989,411.76940917968744) " d="m106.11817,424.05798c-1.77978,-0.8899 -14.41626,-17.79785 -14.43772,-17.81392c-0.02146,-0.01606 5.00486,-6.74712 4.9834,-6.76318c-0.02147,-0.01606 20.489,9.09298 21.71338,10.14478c-8.74242,6.56914 -8.34353,9.27094 -12.25906,14.43232z"/>
    <path transform="rotate(-41.860260009765625 103.78295898437506,435.6185302734375) " d="m104.87232,447.9071c-1.77978,-0.8899 -14.41626,-17.79785 -14.43772,-17.81392c-0.02146,-0.01606 5.00486,-6.74712 4.9834,-6.76318c-0.02147,-0.01606 20.489,9.09298 21.71338,10.14478c-8.74242,6.56914 -8.34353,9.27094 -12.25906,14.43232z"/>
    <path transform="rotate(-47.52939987182617 105.56274414062467,459.4676513671874) " d="m106.65211,471.75622c-1.77978,-0.8899 -14.41626,-17.79785 -14.43772,-17.81392c-0.02146,-0.01606 5.00486,-6.74712 4.9834,-6.76318c-0.02147,-0.01606 20.489,9.09298 21.71338,10.14478c-8.74242,6.56914 -8.34353,9.27094 -12.25906,14.43232z"/>
    <path transform="rotate(-52.08675003051758 110.36816406249984,483.67272949218744) " d="m111.45753,495.9613c-1.77978,-0.8899 -14.41626,-17.79785 -14.43772,-17.81392c-0.02146,-0.01606 5.00486,-6.74712 4.9834,-6.76318c-0.02147,-0.01606 20.489,9.09298 21.71338,10.14478c-8.74242,6.56914 -8.34353,9.27094 -12.25906,14.43232z"/>
    <path transform="rotate(-60.316654205322266 117.13134765625006,506.45397949218756) " d="m118.22071,518.74255c-1.77978,-0.8899 -14.41626,-17.79785 -14.43772,-17.81392c-0.02146,-0.01606 5.00486,-6.74712 4.9834,-6.76318c-0.02147,-0.01606 20.489,9.09298 21.71338,10.14478c-8.74242,6.56914 -8.34353,9.27094 -12.25906,14.43232z"/>
    <path transform="rotate(-69.9392318725586 126.92016601562507,527.8114013671875) " d="m128.00953,540.09997c-1.77978,-0.8899 -14.41626,-17.79785 -14.43772,-17.81392c-0.02146,-0.01606 5.00486,-6.74712 4.9834,-6.76318c-0.02147,-0.01606 20.489,9.09298 21.71338,10.14478c-8.74242,6.56914 -8.34353,9.27094 -12.25906,14.43232z"/>
    <path transform="rotate(-70.57898712158203 138.8447265625,548.6348876953125) " d="m139.93409,560.92346c-1.77978,-0.8899 -14.41626,-17.79785 -14.43772,-17.81392c-0.02146,-0.01606 5.00486,-6.74712 4.9834,-6.76318c-0.02147,-0.01606 20.489,9.09298 21.71338,10.14478c-8.74242,6.56914 -8.34353,9.27094 -12.25906,14.43232z"/>
    <path transform="rotate(-77.02574157714844 152.90502929687494,568.2125244140625) " d="m153.99439,580.5011c-1.77978,-0.8899 -14.41626,-17.79785 -14.43772,-17.81392c-0.02146,-0.01606 5.00486,-6.74712 4.9834,-6.76318c-0.02147,-0.01606 20.489,9.09298 21.71338,10.14478c-8.74242,6.56914 -8.34353,9.27094 -12.25906,14.43232z"/>
    <path transform="rotate(-81.3746337890625 169.4570312499999,587.6121826171874) " d="m170.54639,599.90077c-1.77978,-0.8899 -14.41626,-17.79785 -14.43772,-17.81392c-0.02146,-0.01606 5.00486,-6.74712 4.9834,-6.76318c-0.02147,-0.01606 20.489,9.09298 21.71338,10.14478c-8.74242,6.56914 -8.34353,9.27094 -12.25906,14.43232z"/>
    <path transform="rotate(-87.9043197631836 188.32275390625003,603.9862060546875) " d="m189.41212,616.27479c-1.77978,-0.8899 -14.41626,-17.79785 -14.43772,-17.81392c-0.02146,-0.01606 5.00486,-6.74712 4.9834,-6.76318c-0.02147,-0.01606 20.489,9.09298 21.71338,10.14478c-8.74242,6.56914 -8.34353,9.27094 -12.25906,14.43232z"/>
    <path transform="rotate(-90.55055236816406 207.90039062499997,619.1143798828125) " d="m208.98975,631.40297c-1.77978,-0.8899 -14.41626,-17.79785 -14.43772,-17.81392c-0.02146,-0.01606 5.00486,-6.74712 4.9834,-6.76318c-0.02147,-0.01606 20.489,9.09298 21.71338,10.14478c-8.74242,6.56914 -8.34353,9.27094 -12.25906,14.43232z"/>
    <path transform="rotate(-101.05116271972656 231.03759765624991,632.1068115234374) " d="m232.12696,644.3954c-1.77978,-0.8899 -14.41626,-17.79785 -14.43772,-17.81392c-0.02146,-0.01606 5.00486,-6.74712 4.9834,-6.76318c-0.02147,-0.01606 20.489,9.09298 21.71338,10.14478c-8.74242,6.56914 -8.34353,9.27094 -12.25906,14.43232z"/>
    <path transform="rotate(-105.70824432373047 253.99682617187494,642.7855224609375) " d="m255.08619,655.07411c-1.77978,-0.8899 -14.41626,-17.79785 -14.43772,-17.81392c-0.02146,-0.01606 5.00486,-6.74712 4.9834,-6.76318c-0.02147,-0.01606 20.489,9.09298 21.71338,10.14478c-8.74242,6.56914 -8.34353,9.27094 -12.25906,14.43232z"/>
    <path transform="rotate(-114.26649475097656 278.3798828125001,650.9725341796876) " d="m279.46925,663.26112c-1.77978,-0.8899 -14.41626,-17.79785 -14.43772,-17.81392c-0.02146,-0.01606 5.00486,-6.74712 4.9834,-6.76318c-0.02147,-0.01606 20.489,9.09298 21.71338,10.14478c-8.74242,6.56914 -8.34353,9.27094 -12.25906,14.43232z"/>
    <path transform="rotate(-119.02471923828125 305.43261718749994,657.3797607421874) " d="m306.52198,669.66835c-1.77978,-0.8899 -14.41626,-17.79785 -14.43772,-17.81392c-0.02146,-0.01606 5.00486,-6.74712 4.9834,-6.76318c-0.02147,-0.01606 20.489,9.09298 21.71338,10.14478c-8.74242,6.56914 -8.34353,9.27094 -12.25906,14.43232z"/>
    <path transform="rotate(-127.85325622558594 330.883544921875,660.7613525390625) " d="m331.97291,673.04994c-1.77978,-0.8899 -14.41626,-17.79785 -14.43772,-17.81392c-0.02146,-0.01606 5.00486,-6.74712 4.9834,-6.76318c-0.02147,-0.01606 20.489,9.09298 21.71338,10.14478c-8.74242,6.56914 -8.34353,9.27094 -12.25906,14.43232z"/>
    <path transform="rotate(-133.531005859375 357.580322265625,661.1173095703126) " d="m358.66969,673.4059c-1.77978,-0.8899 -14.41626,-17.79785 -14.43772,-17.81392c-0.02146,-0.01606 5.00486,-6.74712 4.9834,-6.76318c-0.02147,-0.01606 20.489,9.09298 21.71338,10.14478c-8.74242,6.56914 -8.34353,9.27094 -12.25906,14.43232z"/>
    <path transform="rotate(-137.8339385986328 384.27709960937506,659.5155029296876) " d="m385.36646,671.80409c-1.77978,-0.8899 -14.41626,-17.79785 -14.43772,-17.81392c-0.02146,-0.01606 5.00486,-6.74712 4.9834,-6.76318c-0.02147,-0.01606 20.489,9.09298 21.71338,10.14478c-8.74242,6.56914 -8.34353,9.27094 -12.25906,14.43232z"/>
    <path transform="rotate(-144.98609924316406 408.838134765625,655.7779541015624) " d="m409.9275,668.06654c-1.77978,-0.8899 -14.41626,-17.79785 -14.43772,-17.81392c-0.02146,-0.01606 5.00486,-6.74712 4.9834,-6.76318c-0.02147,-0.01606 20.489,9.09298 21.71338,10.14478c-8.74242,6.56914 -8.34353,9.27094 -12.25906,14.43232z"/>
    <path transform="rotate(-146.4053955078125 434.64501953125,648.8367919921875) " d="m435.73438,661.12538c-1.77978,-0.8899 -14.41626,-17.79785 -14.43772,-17.81392c-0.02146,-0.01606 5.00486,-6.74712 4.9834,-6.76318c-0.02147,-0.01606 20.489,9.09298 21.71338,10.14478c-8.74242,6.56914 -8.34353,9.27094 -12.25906,14.43232z"/>
    <path transform="rotate(-153.56155395507812 457.604248046875,639.5819091796875) " d="m458.69361,651.8705c-1.77978,-0.8899 -14.41626,-17.79785 -14.43772,-17.81392c-0.02146,-0.01606 5.00486,-6.74712 4.9834,-6.76318c-0.02147,-0.01606 20.489,9.09298 21.71338,10.14478c-8.74242,6.56914 -8.34353,9.27094 -12.25906,14.43232z"/>
    <path transform="rotate(-160.82089233398438 481.097412109375,629.0811767578125) " d="m482.18678,641.36976c-1.77978,-0.8899 -14.41626,-17.79785 -14.43772,-17.81392c-0.02146,-0.01606 5.00486,-6.74712 4.9834,-6.76318c-0.02147,-0.01606 20.489,9.09298 21.71338,10.14478c-8.74242,6.56914 -8.34353,9.27094 -12.25906,14.43232z"/>
    <path transform="rotate(-164.34942626953125 501.56494140625006,615.5548095703126) " d="m502.6543,627.8434c-1.77978,-0.8899 -14.41626,-17.79785 -14.43772,-17.81392c-0.02146,-0.01606 5.00486,-6.74712 4.9834,-6.76318c-0.02147,-0.01606 20.489,9.09298 21.71338,10.14478c-8.74242,6.56914 -8.34353,9.27094 -12.25906,14.43232z"/>
    <path transform="rotate(-167.72799682617188 520.608642578125,601.3165283203125) " d="m521.69801,613.60511c-1.77978,-0.8899 -14.41626,-17.79785 -14.43772,-17.81392c-0.02146,-0.01606 5.00486,-6.74712 4.9834,-6.76318c-0.02147,-0.01606 20.489,9.09298 21.71338,10.14478c-8.74242,6.56914 -8.34353,9.27094 -12.25906,14.43232z"/>
    <path transform="rotate(-177.7169952392578 538.228515625,585.2984619140624) " d="m539.31788,597.58705c-1.77978,-0.8899 -14.41626,-17.79785 -14.43772,-17.81392c-0.02146,-0.01606 5.00486,-6.74712 4.9834,-6.76318c-0.02147,-0.01606 20.489,9.09298 21.71338,10.14478c-8.74242,6.56914 -8.34353,9.27094 -12.25906,14.43232z"/>
    <path transform="rotate(173.39283752441406 555.136474609375,565.8988037109375) " d="m556.22584,578.18739c-1.77978,-0.8899 -14.41626,-17.79785 -14.43772,-17.81392c-0.02146,-0.01606 5.00486,-6.74712 4.9834,-6.76318c-0.02147,-0.01606 20.489,9.09298 21.71338,10.14478c-8.74242,6.56914 -8.34353,9.27094 -12.25906,14.43232z"/>
    <path transform="rotate(172.08445739746094 568.306884765625,547.7449951171874) " d="m569.39625,560.03357c-1.77978,-0.8899 -14.41626,-17.79785 -14.43772,-17.81392c-0.02146,-0.01606 5.00486,-6.74712 4.9834,-6.76318c-0.02147,-0.01606 20.489,9.09298 21.71338,10.14478c-8.74242,6.56914 -8.34353,9.27094 -12.25906,14.43232z"/>
    <path transform="rotate(156.03741455078125 577.7397460937499,525.6756591796875) " d="m578.82911,537.96423c-1.77978,-0.8899 -14.41626,-17.79785 -14.43772,-17.81392c-0.02146,-0.01606 5.00486,-6.74712 4.9834,-6.76318c-0.02147,-0.01606 20.489,9.09298 21.71338,10.14478c-8.74242,6.56914 -8.34353,9.27094 -12.25906,14.43232z"/>
    <path transform="rotate(157.67950439453125 587.3980712890625,504.6331787109375) " d="m588.36409,515.84768c-1.57826,-0.81212 -12.78392,-16.2422 -12.80295,-16.25687c-0.01903,-0.01466 4.43816,-6.15738 4.41913,-6.17203c-0.01904,-0.01466 18.16905,8.29819 19.25479,9.25806c-7.75252,5.99495 -7.3988,8.4606 -10.87098,13.17084z"/>
    <path transform="rotate(154.28994750976562 594.11376953125,481.27001953124994) " d="m595.03273,492.9265c-1.50138,-0.84413 -12.1612,-16.88238 -12.17931,-16.89762c-0.0181,-0.01523 4.22198,-6.40007 4.20387,-6.4153c-0.01811,-0.01523 17.28402,8.62526 18.31687,9.62296c-7.37489,6.23124 -7.0384,8.79407 -10.34144,13.68996z"/>
    <path transform="rotate(147.4191436767578 597.9403076171875,459.3786926269532) " d="m598.84386,470.10679c-1.47623,-0.77689 -11.95751,-15.53774 -11.97531,-15.55177c-0.0178,-0.01402 4.15126,-5.89032 4.13346,-5.90434c-0.01781,-0.01402 16.99453,7.93828 18.01008,8.85652c-7.25137,5.73494 -6.92051,8.09364 -10.16823,12.59959z"/>
    <path transform="rotate(141.38858032226562 599.3641357421875,434.99566650390625) " d="m600.31489,446.11105c-1.55335,-0.80494 -12.58213,-16.09871 -12.60086,-16.11324c-0.01873,-0.01453 4.36811,-6.10298 4.34938,-6.11751c-0.01874,-0.01453 17.88226,8.22488 18.95087,9.17627c-7.63015,5.94199 -7.28201,8.38585 -10.69938,13.05448z"/>
    <path transform="rotate(137.1384735107422 597.4953613281249,410.1676635742187) " d="m598.32974,421.50038c-1.36321,-0.82068 -11.04202,-16.41347 -11.05846,-16.42829c-0.01644,-0.01481 3.83343,-6.2223 3.817,-6.23712c-0.01644,-0.01481 15.69339,8.38569 16.63119,9.35568c-6.69619,6.05817 -6.39066,8.54981 -9.38973,13.30972z"/>
    <path transform="rotate(129.28916931152344 595.0926513671875,387.20843505859375) " d="m595.9834,399.17334c-1.45532,-0.86646 -11.78814,-17.32909 -11.80569,-17.34474c-0.01755,-0.01564 4.09246,-6.56941 4.07491,-6.58505c-0.01756,-0.01564 16.75381,8.85349 17.75498,9.87759c-7.14866,6.39612 -6.82248,9.02676 -10.0242,14.0522z"/>
    <path transform="rotate(119.57106018066406 588.952392578125,363.71520996093744) " d="m590.04176,376.00378c-1.77978,-0.8899 -14.41626,-17.79785 -14.43772,-17.81392c-0.02146,-0.01606 5.00486,-6.74712 4.9834,-6.76318c-0.02147,-0.01606 20.489,9.09298 21.71338,10.14478c-8.74242,6.56914 -8.34353,9.27094 -12.25906,14.43232z"/>
    <path transform="rotate(116.33973693847656 578.8966064453125,341.5569152832031) " d="m579.89205,352.92563c-1.62638,-0.82329 -13.17371,-16.46558 -13.19332,-16.48045c-0.01961,-0.01486 4.57349,-6.24206 4.55388,-6.25692c-0.01962,-0.01486 18.72304,8.41232 19.84189,9.38539c-7.9889,6.0774 -7.62439,8.57696 -11.20244,13.35198z"/>
    <path transform="rotate(110.92425537109375 568.306884765625,319.04260253906244) " d="m569.39625,331.33117c-1.77978,-0.8899 -14.41626,-17.79785 -14.43772,-17.81392c-0.02146,-0.01606 5.00486,-6.74712 4.9834,-6.76318c-0.02147,-0.01606 20.489,9.09298 21.71338,10.14478c-8.74242,6.56914 -8.34353,9.27094 -12.25906,14.43232z"/>
    <path transform="rotate(100.27302551269531 554.1575927734374,299.73196411132824) " d="m555.08521,311.56575c-1.51556,-0.85697 -12.27608,-17.13917 -12.29436,-17.15464c-0.01827,-0.01547 4.26186,-6.49742 4.24359,-6.51288c-0.01828,-0.01547 17.44729,8.75646 18.48991,9.76933c-7.44456,6.32602 -7.10489,8.92783 -10.43913,13.89819z"/>
    <path transform="rotate(98.84745025634766 537.6055908203125,280.4212951660156) " d="m538.55442,290.90646c-1.55022,-0.7593 -12.55684,-15.18593 -12.57554,-15.19964c-0.01869,-0.0137 4.35933,-5.75695 4.34064,-5.77065c-0.0187,-0.0137 17.84632,7.75854 18.91278,8.65598c-7.61482,5.60509 -7.26738,7.91038 -10.67788,12.31431z"/>
    <path transform="rotate(90.87669372558594 519.896728515625,263.51330566406256) " d="m520.98609,275.80188c-1.77978,-0.8899 -14.41626,-17.79785 -14.43772,-17.81392c-0.02146,-0.01606 5.00486,-6.74712 4.9834,-6.76318c-0.02147,-0.01606 20.489,9.09298 21.71338,10.14478c-8.74242,6.56914 -8.34353,9.27094 -12.25906,14.43232z"/>
    <path transform="rotate(85.28213500976562 500.67504882812506,248.7411193847655) " d="m501.65457,260.02569c-1.60034,-0.81719 -12.96279,-16.34375 -12.98209,-16.35851c-0.0193,-0.01475 4.50026,-6.19587 4.48097,-6.21062c-0.01931,-0.01475 18.42327,8.35008 19.5242,9.31594c-7.861,6.03244 -7.50232,8.5135 -11.02308,13.25319z"/>
    <path transform="rotate(78.03266143798828 478.3208923339843,235.81726074218759) " d="m479.2404,247.95584c-1.50228,-0.87904 -12.16848,-17.58061 -12.18659,-17.59649c-0.01811,-0.01586 4.2245,-6.66477 4.20639,-6.68063c-0.01812,-0.01586 17.29436,8.98199 18.32783,10.02096c-7.3793,6.48896 -7.04261,9.15778 -10.34763,14.25616z"/>
    <path transform="rotate(73.1329116821289 455.64648437500006,224.0020904541016) " d="m456.73585,236.29065c-1.77978,-0.8899 -14.41626,-17.79785 -14.43772,-17.81392c-0.02146,-0.01606 5.00486,-6.74712 4.9834,-6.76318c-0.02147,-0.01606 20.489,9.09298 21.71338,10.14478c-8.74242,6.56914 -8.34353,9.27094 -12.25906,14.43232z"/>
    <path transform="rotate(69.99166107177734 432.15332031250006,215.28114318847653) " d="m433.24268,227.5697c-1.77978,-0.8899 -14.41626,-17.79785 -14.43772,-17.81392c-0.02146,-0.01606 5.00486,-6.74712 4.9834,-6.76318c-0.02147,-0.01606 20.489,9.09298 21.71338,10.14478c-8.74242,6.56914 -8.34353,9.27094 -12.25906,14.43232z"/>
    <path transform="rotate(61.49312210083008 406.346435546875,208.6959381103516) " d="m407.4358,220.98449c-1.77978,-0.8899 -14.41626,-17.79785 -14.43772,-17.81392c-0.02146,-0.01606 5.00486,-6.74712 4.9834,-6.76318c-0.02147,-0.01606 20.489,9.09298 21.71338,10.14478c-8.74242,6.56914 -8.34353,9.27094 -12.25906,14.43232z"/>
    <path transform="rotate(52.86117172241211 381.42944335937494,204.9583892822266) " d="m382.51881,217.24695c-1.77978,-0.8899 -14.41626,-17.79785 -14.43772,-17.81392c-0.02146,-0.01606 5.00486,-6.74712 4.9834,-6.76318c-0.02147,-0.01606 20.489,9.09298 21.71338,10.14478c-8.74242,6.56914 -8.34353,9.27094 -12.25906,14.43232z"/>
    <path transform="rotate(51.39212417602539 355.088623046875,203.71253967285156) " d="m356.17799,216.0011c-1.77978,-0.8899 -14.41626,-17.79785 -14.43772,-17.81392c-0.02146,-0.01606 5.00486,-6.74712 4.9834,-6.76318c-0.02147,-0.01606 20.489,9.09298 21.71338,10.14478c-8.74242,6.56914 -8.34353,9.27094 -12.25906,14.43232z"/>
    <path transform="rotate(47.15631866455078 328.92578125,204.60243225097656) " d="m330.01514,216.89099c-1.77978,-0.8899 -14.41626,-17.79785 -14.43772,-17.81392c-0.02146,-0.01606 5.00486,-6.74712 4.9834,-6.76318c-0.02147,-0.01606 20.489,9.09298 21.71338,10.14478c-8.74242,6.56914 -8.34353,9.27094 -12.25906,14.43232z"/>
    <path transform="rotate(39.07741165161133 302.5849609375,207.98402404785153) " d="m303.67432,220.27258c-1.77978,-0.8899 -14.41626,-17.79785 -14.43772,-17.81392c-0.02146,-0.01606 5.00486,-6.74712 4.9834,-6.76318c-0.02147,-0.01606 20.489,9.09298 21.71338,10.14478c-8.74242,6.56914 -8.34353,9.27094 -12.25906,14.43232z"/>
    <path transform="rotate(33.146793365478516 277.134033203125,214.7472076416016) " d="m278.2234,227.03576c-1.77978,-0.8899 -14.41626,-17.79785 -14.43772,-17.81392c-0.02146,-0.01606 5.00486,-6.74712 4.9834,-6.76318c-0.02147,-0.01606 20.489,9.09298 21.71338,10.14478c-8.74242,6.56914 -8.34353,9.27094 -12.25906,14.43232z"/>
    <path transform="rotate(28.003515243530273 251.68310546875017,222.7562408447265) " d="m252.77247,235.0448c-1.77978,-0.8899 -14.41626,-17.79785 -14.43772,-17.81392c-0.02146,-0.01606 5.00486,-6.74712 4.9834,-6.76318c-0.02147,-0.01606 20.489,9.09298 21.71338,10.14478c-8.74242,6.56914 -8.34353,9.27094 -12.25906,14.43232z"/>
  </g>
  <text transform="matrix(0.8165847659111023,0,0,0.8165847659111023,42.28867490962148,29.724731374531984) " y="137.25589" x="382.77255">2.048</text>
  <text transform="matrix(0.8165847659111023,0,0,0.8165847659111023,42.28867490962148,29.724731374531984) " y="927.24493" x="385.50908">3.766</text>
  <text transform="matrix(0.8165847659111023,0,0,0.8165847659111023,42.28867490962148,29.724731374531984) " y="183.68024" x="154.57394">0.435</text>
  <text transform="matrix(0.8165847659111023,0,0,0.8165847659111023,42.28867490962148,29.724731374531984) " y="294.11064" x="82.11609">0.905</text>
  <text transform="matrix(0.8165847659111023,0,0,0.8165847659111023,42.28867490962148,29.724731374531984) " y="412.67802" x="30.19443">0.454</text>
  <text transform="matrix(0.8165847659111023,0,0,0.8165847659111023,42.28867490962148,29.724731374531984) " y="740.09446" x="603.65756">0.623</text>
  <text transform="matrix(0.8165847659111023,0,0,0.8165847659111023,42.28867490962148,29.724731374531984) " y="877.26064" x="386.28403">1.810</text>
  <text transform="matrix(0.8165847659111023,0,0,0.8165847659111023,42.28867490962148,29.724731374531984) " y="831.53858" x="387.83393">0.923</text>
  <text transform="matrix(0.8165847659111023,0,0,0.8165847659111023,42.28867490962148,29.724731374531984) " y="506.05951" x="1044.21673">1.125</text>
  <text transform="matrix(0.8165847659111023,0,0,0.8165847659111023,42.28867490962148,29.724731374531984) " y="740.09446" x="603.65756">0.623</text>
  <text transform="matrix(0.8165847659111023,0,0,0.8165847659111023,42.28867490962148,29.724731374531984) " y="785.42905" x="601.72018">0.185</text>
  <text transform="matrix(0.8165847659111023,0,0,0.8165847659111023,42.28867490962148,29.724731374531984) " y="890.04732" x="939.98593">0.541</text>
  <text transform="matrix(0.8165847659111023,0,0,0.8165847659111023,42.28867490962148,29.724731374531984) " y="700.18453" x="855.12889">1.440</text>
  <text transform="matrix(0.8165847659111023,0,0,0.8165847659111023,42.28867490962148,29.724731374531984) " y="888.10994" x="812.8941">0.389</text>
  <text transform="matrix(0.8165847659111023,0,0,0.8165847659111023,42.28867490962148,29.724731374531984) " y="152.73067" x="262.24358">0.314</text>
  <text transform="matrix(0.8165847659111023,0,0,0.8165847659111023,42.28867490962148,29.724731374531984) " y="140.33147" x="462.5682">0.276</text>
  <text transform="matrix(0.8165847659111023,0,0,0.8165847659111023,42.28867490962148,29.724731374531984) " y="225.57599" x="626.08268">0.168 in.</text>
  <text transform="matrix(0.8165847659111023,0,0,0.8165847659111023,42.28867490962148,29.724731374531984) " y="260.06127" x="656.30574">0.150 in.</text>
  <text transform="rotate(-90 927.88427734375,432.3687438964843) matrix(0.8165847659111023,0,0,0.8165847659111023,42.28867490962148,29.724731374531984) " y="501.02234" x="1084.51413">1.513</text>
  <text transform="matrix(0.8165847659111023,0,0,0.8165847659111023,42.28867490962148,29.724731374531984) " y="686.6229" x="1043.44178">1.708</text>
  <text transform="rotate(-90 927.88037109375,432.3717956542968) matrix(0.8165847659111023,0,0,0.8165847659111023,42.28867490962148,29.724731374531984) " y="501.02234" x="1084.51413">1.513</text>
  <text transform="matrix(0.8165847659111023,0,0,0.8165847659111023,42.28867490962148,29.724731374531984) " y="506.44699" x="1132.56104">1.694</text>
  <text transform="matrix(0.8165847659111023,0,0,0.8165847659111023,42.28867490962148,29.724731374531984) " y="686.6229" x="1043.44178">1.708</text>
  <text transform="matrix(0.8165847659111023,0,0,0.8165847659111023,42.28867490962148,29.724731374531984) " y="145.32021" x="870.24041">2.172</text>
 </g>
</svg>